<svg xmlns="http://www.w3.org/2000/svg" version="1.1" xmlns:xlink="http://www.w3.org/1999/xlink" xmlns:svgjs="http://svgjs.dev/svgjs" width="1500" height="1500" viewBox="0 0 1500 1500"><rect width="1500" height="1500" fill="#000000"></rect><g transform="matrix(0.6666666666666666,0,0,0.6666666666666666,249.39393939393932,607.4684154009644)"><svg viewBox="0 0 396 113" data-background-color="#ffffff" preserveAspectRatio="xMidYMid meet" height="428" width="1500" xmlns="http://www.w3.org/2000/svg" xmlns:xlink="http://www.w3.org/1999/xlink"><g id="tight-bounds" transform="matrix(1,0,0,1,0.24000000000003752,-0.05349628612958668)"><svg viewBox="0 0 395.5199999999999 113.10699257225914" height="113.10699257225914" width="395.5199999999999"><g><svg viewBox="0 0 647.565883557977 185.18464194387275" height="113.10699257225914" width="395.5199999999999"><g transform="matrix(1,0,0,1,252.045883557977,25.593535898176327)"><svg viewBox="0 0 395.52 133.9975701475201" height="133.9975701475201" width="395.52"><g id="textblocktransform"><svg viewBox="0 0 395.52 133.9975701475201" height="133.9975701475201" width="395.52" id="textblock"><g><svg viewBox="0 0 395.52 90.24724870221803" height="90.24724870221803" width="395.52"><g transform="matrix(1,0,0,1,0,0)"><svg width="395.52" viewBox="2.4999999999999996 -47 211.88 48.35" height="90.24724870221803" data-palette-color="#152232"><g class="wordmark-text-0" data-fill-palette-color="primary" id="text-0"><path d="M39.7-15.2Q39.85-15.25 40.2-15.25L40.2-15.25Q40.95-15.25 41.35-14.75 41.75-14.25 41.75-13.4L41.75-13.4Q41.75-11.85 41.15-10.98 40.55-10.1 39.35-9.7L39.35-9.7Q37.05-8.95 34.45-8.95L34.45-8.95Q32.25-8.95 30.3-9.55L30.3-9.55Q28.85-7.2 27.1-4.7L27.1-4.7Q25.1-1.85 23.68-0.8 22.25 0.25 20.45 0.25L20.45 0.25Q18.45 0.25 17.43-1.3 16.4-2.85 16.15-6.4L16.15-6.4 15.9-10.05Q14.35-5.85 13.13-3.65 11.9-1.45 10.68-0.6 9.45 0.25 7.8 0.25L7.8 0.25Q5.75 0.25 4.58-1.35 3.4-2.95 3.1-6.4L3.1-6.4Q2.5-13.4 2.5-18.65L2.5-18.65 2.5-20.4Q2.55-22.05 3.4-22.7 4.25-23.35 5.95-23.35L5.95-23.35Q7.25-23.35 7.88-22.78 8.5-22.2 8.5-20.85L8.5-20.85Q8.5-15.1 9.2-5.9L9.2-5.9Q12.6-13.05 15.45-20.8L15.45-20.8Q16-22.3 16.78-22.83 17.55-23.35 18.65-23.35L18.65-23.35Q20-23.35 20.53-22.8 21.05-22.25 21.05-20.85L21.05-20.85Q21.05-15.1 21.75-5.9L21.75-5.9Q24.75-10.35 26.25-13L26.25-13Q25.5-14.45 25.5-16.45L25.5-16.45Q25.5-18.15 26.25-19.75 27-21.35 28.3-22.35 29.6-23.35 31.25-23.35L31.25-23.35Q32.7-23.35 33.6-22.33 34.5-21.3 34.5-19.35L34.5-19.35Q34.5-17.1 33.3-14.2L33.3-14.2Q35.2-14.3 38.35-14.95L38.35-14.95 39.7-15.2ZM65.15-11.15Q65.8-11.15 66.17-10.55 66.55-9.95 66.55-8.9L66.55-8.9Q66.55-6.9 65.6-5.8L65.6-5.8Q63.3-3.15 60.87-1.45 58.45 0.25 55.35 0.25L55.35 0.25Q52.8 0.25 51.5-1.23 50.2-2.7 50.2-5.5L50.2-5.5Q50.2-6.9 50.9-10.5L50.9-10.5Q51.55-13.65 51.55-14.85L51.55-14.85Q51.55-15.65 51-15.65L51-15.65Q50.35-15.65 49.15-13.98 47.95-12.3 46.75-9.55 45.55-6.8 44.8-3.75L44.8-3.75Q43.85 0.25 40.1 0.25L40.1 0.25Q38.6 0.25 38.12-0.83 37.65-1.9 37.65-4.7L37.65-4.7Q37.65-6.3 37.7-7.25L37.7-7.25 37.75-11.25Q37.75-18.95 39.32-27.3 40.9-35.65 43.97-41.33 47.05-47 51.35-47L51.35-47Q53.65-47 55.07-45.03 56.5-43.05 56.5-39.9L56.5-39.9Q56.5-34.85 53.55-29.43 50.6-24 43.95-16.75L43.95-16.75Q43.8-14.15 43.8-11.4L43.8-11.4Q45.45-15.65 47.47-18.32 49.5-21 51.47-22.15 53.45-23.3 55.1-23.3L55.1-23.3Q58.35-23.3 58.35-20.05L58.35-20.05Q58.35-18.1 57.25-13L57.25-13Q56.3-8.65 56.3-7.25L56.3-7.25Q56.3-5.25 57.75-5.25L57.75-5.25Q58.75-5.25 60.12-6.48 61.5-7.7 63.8-10.45L63.8-10.45Q64.4-11.15 65.15-11.15L65.15-11.15ZM50.3-42.05Q49.4-42.05 48.3-39.48 47.2-36.9 46.17-32.52 45.15-28.15 44.5-23L44.5-23Q47.6-26.65 49.62-30.95 51.65-35.25 51.65-38.75L51.65-38.75Q51.65-40.35 51.3-41.2 50.95-42.05 50.3-42.05L50.3-42.05ZM69.05-26.6Q66.95-26.6 65.9-27.58 64.84-28.55 64.84-30.3L64.84-30.3Q64.84-32.05 66.22-33.23 67.59-34.4 69.65-34.4L69.65-34.4Q71.5-34.4 72.65-33.5 73.8-32.6 73.8-30.95L73.8-30.95Q73.8-28.95 72.5-27.78 71.2-26.6 69.05-26.6L69.05-26.6ZM68.65 0.25Q65.4 0.25 63.92-2.05 62.45-4.35 62.45-8.15L62.45-8.15Q62.45-10.4 63.02-13.93 63.6-17.45 64.5-20.5L64.5-20.5Q64.95-22.1 65.7-22.7 66.45-23.3 68.09-23.3L68.09-23.3Q70.65-23.3 70.65-21.6L70.65-21.6Q70.65-20.35 69.7-15.8L69.7-15.8Q68.5-10.3 68.5-8.35L68.5-8.35Q68.5-6.85 68.9-6.05 69.3-5.25 70.25-5.25L70.25-5.25Q71.15-5.25 72.5-6.5 73.84-7.75 76.09-10.45L76.09-10.45Q76.7-11.15 77.45-11.15L77.45-11.15Q78.09-11.15 78.47-10.55 78.84-9.95 78.84-8.9L78.84-8.9Q78.84-6.9 77.9-5.8L77.9-5.8Q72.95 0.25 68.65 0.25L68.65 0.25ZM84.09 1.35Q81.49 1.35 80.12 0.15 78.74-1.05 78.74-2.55L78.74-2.55Q78.74-3.85 79.69-4.8 80.64-5.75 82.49-5.75L82.49-5.75Q83.14-5.75 84.02-5.63 84.89-5.5 85.34-5.45L85.34-5.45Q85.29-6.75 84.77-7.9 84.24-9.05 83.44-10.13 82.64-11.2 81.94-12L81.94-12Q80.39-9.05 78.87-7.1 77.34-5.15 75.54-3.4L75.54-3.4Q74.64-2.5 73.64-2.5L73.64-2.5Q72.84-2.5 72.34-3.08 71.84-3.65 71.84-4.5L71.84-4.5Q71.84-5.5 72.54-6.35L72.54-6.35 73.19-7.15Q75.94-10.55 77.34-12.75L77.34-12.75Q78.19-14.2 79.34-16.63 80.49-19.05 81.59-21.65L81.59-21.65Q82.54-23.85 85.54-23.85L85.54-23.85Q86.94-23.85 87.49-23.6 88.04-23.35 88.04-22.8L88.04-22.8Q88.04-22.5 87.84-21.85 87.64-21.2 87.29-20.55L87.29-20.55Q86.39-18.75 86.39-17.5L86.39-17.5Q86.39-16.75 86.92-15.85 87.44-14.95 88.54-13.6L88.54-13.6Q90.14-11.5 90.97-10.03 91.79-8.55 91.79-6.8L91.79-6.8Q91.79-6.3 91.69-5.4L91.69-5.4Q94.14-6.35 97.44-10.45L97.44-10.45Q98.04-11.15 98.79-11.15L98.79-11.15Q99.44-11.15 99.82-10.55 100.19-9.95 100.19-8.9L100.19-8.9Q100.19-7 99.24-5.8L99.24-5.8Q96.74-2.7 94.47-1.58 92.19-0.45 88.84-0.35L88.84-0.35Q86.84 1.35 84.09 1.35L84.09 1.35ZM118.44-11.15Q119.09-11.15 119.47-10.55 119.84-9.95 119.84-8.9L119.84-8.9Q119.84-6.9 118.89-5.8L118.89-5.8Q116.74-3.15 114.19-1.45 111.64 0.25 108.34 0.25L108.34 0.25Q98.14 0.25 98.14-14.1L98.14-14.1Q98.14-16.3 98.29-18.55L98.29-18.55 96.34-18.55Q94.84-18.55 94.32-19.1 93.79-19.65 93.79-20.85L93.79-20.85Q93.79-23.65 96.04-23.65L96.04-23.65 98.89-23.65Q99.74-29.15 101.49-33.7 103.24-38.25 105.72-40.95 108.19-43.65 111.04-43.65L111.04-43.65Q113.14-43.65 114.34-41.8 115.54-39.95 115.54-37.15L115.54-37.15Q115.54-29.4 109.04-23.65L109.04-23.65 114.64-23.65Q115.44-23.65 115.79-23.3 116.14-22.95 116.14-22L116.14-22Q116.14-18.55 110.49-18.55L110.49-18.55 104.39-18.55Q104.29-16.05 104.29-14.65L104.29-14.65Q104.29-9.45 105.52-7.35 106.74-5.25 109.39-5.25L109.39-5.25Q111.54-5.25 113.19-6.55 114.84-7.85 117.09-10.45L117.09-10.45Q117.69-11.15 118.44-11.15L118.44-11.15ZM109.69-38.85Q108.94-38.85 108.02-36.98 107.09-35.1 106.27-31.78 105.44-28.45 104.89-24.4L104.89-24.4Q107.84-26.95 109.32-30.13 110.79-33.3 110.79-35.9L110.79-35.9Q110.79-38.85 109.69-38.85L109.69-38.85ZM134.74-11.15Q135.39-11.15 135.76-10.55 136.14-9.95 136.14-8.9L136.14-8.9Q136.14-6.9 135.19-5.8L135.19-5.8Q133.04-3.15 130.51-1.45 127.99 0.25 124.79 0.25L124.79 0.25Q120.39 0.25 118.26-3.75 116.14-7.75 116.14-14.1L116.14-14.1Q116.14-20.2 117.71-28 119.29-35.8 122.36-41.4 125.44-47 129.69-47L129.69-47Q132.09-47 133.46-44.78 134.84-42.55 134.84-38.4L134.84-38.4Q134.84-32.45 131.54-24.6 128.24-16.75 122.59-9.05L122.59-9.05Q122.94-7 123.74-6.13 124.54-5.25 125.84-5.25L125.84-5.25Q127.89-5.25 129.44-6.43 130.99-7.6 133.39-10.45L133.39-10.45Q133.99-11.15 134.74-11.15L134.74-11.15ZM128.59-42.05Q127.44-42.05 125.99-37.9 124.54-33.75 123.44-27.6 122.34-21.45 122.24-15.8L122.24-15.8Q125.79-21.65 127.89-27.53 129.99-33.4 129.99-38.25L129.99-38.25Q129.99-42.05 128.59-42.05L128.59-42.05ZM154.39-11.15Q155.04-11.15 155.41-10.55 155.79-9.95 155.79-8.9L155.79-8.9Q155.79-6.9 154.84-5.8L154.84-5.8Q152.99-3.55 149.61-1.65 146.24 0.25 142.39 0.25L142.39 0.25Q137.14 0.25 134.24-2.6 131.34-5.45 131.34-10.4L131.34-10.4Q131.34-13.85 132.79-16.82 134.24-19.8 136.81-21.55 139.39-23.3 142.64-23.3L142.64-23.3Q145.54-23.3 147.29-21.58 149.04-19.85 149.04-16.9L149.04-16.9Q149.04-13.45 146.56-10.98 144.09-8.5 138.19-7.05L138.19-7.05Q139.44-4.75 142.94-4.75L142.94-4.75Q145.19-4.75 148.06-6.33 150.94-7.9 153.04-10.45L153.04-10.45Q153.64-11.15 154.39-11.15L154.39-11.15ZM141.79-18.4Q139.94-18.4 138.66-16.25 137.39-14.1 137.39-11.05L137.39-11.05 137.39-10.95Q140.34-11.65 142.04-13.05 143.74-14.45 143.74-16.3L143.74-16.3Q143.74-17.25 143.21-17.82 142.69-18.4 141.79-18.4L141.79-18.4ZM155.28 0.25Q153.38 0.25 152.61-1.75 151.83-3.75 151.83-8.15L151.83-8.15Q151.83-14.65 153.68-20.5L153.68-20.5Q154.13-21.95 155.16-22.63 156.18-23.3 158.03-23.3L158.03-23.3Q159.03-23.3 159.43-23.05 159.83-22.8 159.83-22.1L159.83-22.1Q159.83-21.3 159.08-18.5L159.08-18.5Q158.58-16.5 158.28-15 157.98-13.5 157.78-11.3L157.78-11.3Q159.43-15.6 161.48-18.3 163.53-21 165.51-22.15 167.48-23.3 169.13-23.3L169.13-23.3Q172.38-23.3 172.38-20.05L172.38-20.05Q172.38-19.4 171.93-16.9L171.93-16.9Q171.53-14.9 171.53-14.4L171.53-14.4Q171.53-12.65 172.78-12.65L172.78-12.65Q174.18-12.65 176.38-14.85L176.38-14.85Q177.03-15.5 177.73-15.5L177.73-15.5Q178.38-15.5 178.76-14.93 179.13-14.35 179.13-13.4L179.13-13.4Q179.13-11.55 178.13-10.5L178.13-10.5Q176.73-9.05 174.86-8.03 172.98-7 170.88-7L170.88-7Q168.23-7 166.86-8.35 165.48-9.7 165.48-12L165.48-12Q165.48-12.75 165.63-13.5L165.63-13.5Q165.73-14.5 165.73-14.85L165.73-14.85Q165.73-15.65 165.18-15.65L165.18-15.65Q164.43-15.65 163.21-13.98 161.98-12.3 160.78-9.55 159.58-6.8 158.83-3.75L158.83-3.75Q158.28-1.4 157.56-0.58 156.83 0.25 155.28 0.25L155.28 0.25ZM180.53-25.1Q179.28-25.1 178.46-25.78 177.63-26.45 177.78-28.05L177.78-28.05 178.78-37.6Q179.28-42.2 183.13-42.2L183.13-42.2Q186.43-42.2 186.43-39.1L186.43-39.1Q186.43-38.4 186.18-37.25L186.18-37.25 184.18-28.05Q183.83-26.45 182.83-25.78 181.83-25.1 180.53-25.1L180.53-25.1ZM198.28 1.35Q195.68 1.35 194.3 0.15 192.93-1.05 192.93-2.55L192.93-2.55Q192.93-3.85 193.88-4.8 194.83-5.75 196.68-5.75L196.68-5.75Q197.33-5.75 198.2-5.63 199.08-5.5 199.53-5.45L199.53-5.45Q199.48-6.75 198.95-7.9 198.43-9.05 197.63-10.13 196.83-11.2 196.13-12L196.13-12Q194.58-9.05 193.05-7.1 191.53-5.15 189.73-3.4L189.73-3.4Q188.83-2.5 187.83-2.5L187.83-2.5Q187.03-2.5 186.53-3.08 186.03-3.65 186.03-4.5L186.03-4.5Q186.03-5.5 186.73-6.35L186.73-6.35 187.38-7.15Q190.13-10.55 191.53-12.75L191.53-12.75Q192.38-14.2 193.53-16.63 194.68-19.05 195.78-21.65L195.78-21.65Q196.73-23.85 199.73-23.85L199.73-23.85Q201.13-23.85 201.68-23.6 202.23-23.35 202.23-22.8L202.23-22.8Q202.23-22.5 202.03-21.85 201.83-21.2 201.48-20.55L201.48-20.55Q200.58-18.75 200.58-17.5L200.58-17.5Q200.58-16.75 201.1-15.85 201.63-14.95 202.73-13.6L202.73-13.6Q204.33-11.5 205.15-10.03 205.98-8.55 205.98-6.8L205.98-6.8Q205.98-6.3 205.88-5.4L205.88-5.4Q208.33-6.35 211.63-10.45L211.63-10.45Q212.23-11.15 212.98-11.15L212.98-11.15Q213.63-11.15 214-10.55 214.38-9.95 214.38-8.9L214.38-8.9Q214.38-7 213.43-5.8L213.43-5.8Q210.93-2.7 208.65-1.58 206.38-0.45 203.03-0.35L203.03-0.35Q201.03 1.35 198.28 1.35L198.28 1.35Z" fill="#ffffff" data-fill-palette-color="primary"></path></g></svg></g></svg></g><g transform="matrix(1,0,0,1,0,111.55245818684286)"><svg viewBox="0 0 375.7439999999999 22.44511196067722" height="22.44511196067722" width="375.7439999999999"><g transform="matrix(1,0,0,1,0,0)"><svg width="375.7439999999999" viewBox="3.45 -43.25 732.3299999999999 43.75" height="22.44511196067722" data-palette-color="#12a721"><path d="M29.05-8.25L30.85-2.3Q31-1.8 31-1.55L31-1.55Q31-0.55 30.2-0.03 29.4 0.5 28.2 0.5L28.2 0.5Q27.35 0.5 26.7 0.13 26.05-0.25 25.85-0.9L25.85-0.9Q24.65-4.95 23.75-8.25L23.75-8.25 10.85-8.3 8.65-1.1Q8.2 0.45 6.25 0.45L6.25 0.45Q5.15 0.45 4.3-0.13 3.45-0.7 3.45-1.6L3.45-1.6Q3.45-1.9 3.6-2.35L3.6-2.35Q8.6-17.3 11.25-25.35L11.25-25.35 12.65-29.7Q13.75-32.9 14.85-34.23 15.95-35.55 17.7-35.55L17.7-35.55Q19.35-35.55 20.38-34.35 21.4-33.15 22.35-30.2L22.35-30.2Q24.75-22.65 27.65-12.95L27.65-12.95 29.05-12.95Q30.05-12.95 30.58-12.33 31.1-11.7 31.1-10.6L31.1-10.6Q31.1-8.25 29.45-8.25L29.45-8.25 29.05-8.25ZM12.35-13.1L22.4-13 22.1-14.15Q20.15-21.05 19-24.85L19-24.85Q18.85-25.3 18.5-26.5 18.15-27.7 17.93-28.2 17.7-28.7 17.5-28.7L17.5-28.7Q17.25-28.7 17.03-28.13 16.8-27.55 16.4-26.1L16.4-26.1Q16.35-25.85 16.25-25.6 16.15-25.35 16.05-25L16.05-25Q15.85-24.3 15.7-23.95L15.7-23.95Q15.15-22.2 14.35-19.63 13.55-17.05 12.35-13.1L12.35-13.1ZM40.95-0.45Q39.85-0.45 39.2-1.05 38.55-1.65 38.55-2.6L38.55-2.6 38.25-37.4Q38.25-38.4 38.97-39 39.7-39.6 40.8-39.6L40.8-39.6Q41.9-39.6 42.55-39 43.2-38.4 43.2-37.45L43.2-37.45 43.45-2.65Q43.45-1.65 42.75-1.05 42.05-0.45 40.95-0.45L40.95-0.45ZM53.8-0.45Q52.7-0.45 52.05-1.05 51.4-1.65 51.4-2.6L51.4-2.6 51.1-37.4Q51.1-38.4 51.82-39 52.55-39.6 53.65-39.6L53.65-39.6Q54.75-39.6 55.4-39 56.05-38.4 56.05-37.45L56.05-37.45 56.3-2.65Q56.3-1.65 55.6-1.05 54.9-0.45 53.8-0.45L53.8-0.45ZM92.84-25.8Q96.04-25.8 97.94-23.75 99.84-21.7 99.84-18.65L99.84-18.65Q99.84-15.75 98.04-14.1 96.24-12.45 93.39-12.45L93.39-12.45Q92.14-12.45 91.62-12.83 91.09-13.2 91.09-14.15L91.09-14.15Q91.09-15 91.47-15.38 91.84-15.75 92.59-15.8L92.59-15.8Q95.74-16.05 95.74-18.75L95.74-18.75Q95.74-20.05 95.02-20.95 94.29-21.85 92.79-21.85L92.79-21.85Q91.04-21.85 89.67-20.2 88.29-18.55 87.47-16.2 86.64-13.85 86.49-11.75L86.49-11.75Q86.14-8 86.14-3.35L86.14-3.35Q86.14-1.1 85.64-0.35 85.14 0.4 83.74 0.4L83.74 0.4Q82.39 0.4 81.82-0.18 81.24-0.75 81.24-2.1L81.24-2.1Q81.19-3.05 81.19-11.15L81.19-11.15Q81.19-15.2 80.64-20.5L80.64-20.5 80.34-24.35Q80.29-25.3 80.92-25.85 81.54-26.4 82.69-26.4L82.69-26.4Q84.69-26.4 84.79-24.6L84.79-24.6 85.14-19.5Q86.04-22.35 88.04-24.08 90.04-25.8 92.84-25.8L92.84-25.8ZM117.49 0.1Q111.59 0.1 107.86-3.03 104.14-6.15 104.14-12.4L104.14-12.4Q104.14-16.35 105.71-19.4 107.29-22.45 110.21-24.15 113.14-25.85 117.14-25.85L117.14-25.85Q121.04-25.85 124.11-24.2 127.19-22.55 128.91-19.48 130.64-16.4 130.64-12.3L130.64-12.3Q130.64-6.3 127.04-3.1 123.44 0.1 117.49 0.1L117.49 0.1ZM117.39-3.85Q121.09-3.85 123.39-6.03 125.69-8.2 125.69-12.4L125.69-12.4Q125.69-15.1 124.66-17.28 123.64-19.45 121.71-20.68 119.79-21.9 117.29-21.9L117.29-21.9Q113.59-21.9 111.36-19.33 109.14-16.75 109.14-12.45L109.14-12.45Q109.14-8.05 111.49-5.95 113.84-3.85 117.39-3.85L117.39-3.85ZM155.79-6.3Q155.79-5.1 156.04-4.33 156.29-3.55 156.64-2.95 156.99-2.35 156.99-2.2L156.99-2.2Q156.99-1.4 156.31-0.8 155.64-0.2 154.79-0.2L154.79-0.2Q153.79-0.2 152.84-1.48 151.89-2.75 151.89-4L151.89-4 151.89-4.3Q150.89-2.2 148.94-1.07 146.99 0.05 144.24 0.05L144.24 0.05Q139.99 0.05 137.76-2.93 135.54-5.9 135.54-11.2L135.54-11.2 135.54-23.35Q135.54-24.2 136.21-24.7 136.89-25.2 137.94-25.2L137.94-25.2Q139.04-25.2 139.76-24.7 140.49-24.2 140.49-23.35L140.49-23.35 140.49-11.15Q140.49-3.9 144.84-3.9L144.84-3.9Q147.89-3.9 149.26-6.68 150.64-9.45 150.64-14.7L150.64-14.7 150.64-23.35Q150.64-24.35 151.29-24.93 151.94-25.5 153.04-25.5L153.04-25.5Q154.19-25.5 154.89-24.9 155.59-24.3 155.59-23.35L155.59-23.35 155.79-6.3ZM176.38-25.5Q180.63-25.5 182.86-22.48 185.08-19.45 185.08-13.45L185.08-13.45 185.08-1.9Q185.08-0.95 184.43-0.48 183.78 0 182.68 0L182.68 0Q181.58 0 180.83-0.45 180.08-0.9 180.08-1.8L180.08-1.8 180.13-13.5Q180.13-17.65 179.21-19.53 178.28-21.4 175.93-21.4L175.93-21.4Q171.43-21.4 170.08-14.2L170.08-14.2Q169.63-12 169.63-8.9L169.63-8.9 169.68-1.8Q169.68-0.9 169.03-0.43 168.38 0.05 167.28 0.05L167.28 0.05Q166.08 0.05 165.41-0.48 164.73-1 164.73-1.8L164.73-1.8Q164.73-6.8 164.53-13.4L164.53-13.4Q164.43-17.3 164.43-18.8L164.43-18.8Q164.38-19.9 164.11-20.53 163.83-21.15 163.08-22.4L163.08-22.4Q162.88-22.9 162.88-23.25L162.88-23.25Q162.88-24 163.73-24.65 164.58-25.3 165.38-25.3L165.38-25.3Q166.23-25.3 167.03-24.2L167.03-24.2Q168.38-22.25 168.38-20.65L168.38-20.65 168.38-20.05Q169.28-22.4 171.21-23.95 173.13-25.5 176.38-25.5L176.38-25.5ZM203.78 0.3Q200.13 0.3 197.16-1.18 194.18-2.65 192.46-5.58 190.73-8.5 190.73-12.7L190.73-12.7Q190.73-16.6 192.33-19.5 193.93-22.4 196.88-23.95 199.83-25.5 203.78-25.5L203.78-25.5Q206.33-25.5 208.23-24.8 210.13-24.1 211.33-23L211.33-23Q211.63-35.05 212.08-41.3L212.08-41.3Q212.18-42.15 212.86-42.7 213.53-43.25 214.53-43.25L214.53-43.25Q215.68-43.25 216.41-42.65 217.13-42.05 217.08-41.1L217.08-41.1Q216.73-37.8 216.46-29 216.18-20.2 216.18-13.3L216.18-13.3Q216.18-6.65 216.48-5.45L216.48-5.45Q217.03-3.4 217.98-2.9L217.98-2.9Q218.18-2.8 218.18-2.2L218.18-2.2Q218.18-1.3 217.36-0.55 216.53 0.2 215.53 0.2L215.53 0.2Q214.68 0.2 214.18-0.2L214.18-0.2Q212.43-1.2 211.83-3.7L211.83-3.7Q210.58-1.85 208.48-0.78 206.38 0.3 203.78 0.3L203.78 0.3ZM203.73-3.85Q205.63-3.85 207.36-4.75 209.08-5.65 210.13-7.13 211.18-8.6 211.18-10.25L211.18-10.25Q211.18-12.55 211.23-13.85L211.23-13.85 211.28-17.85Q210.53-19.15 208.46-20.28 206.38-21.4 203.93-21.4L203.93-21.4Q200.13-21.4 197.91-19.05 195.68-16.7 195.68-12.55L195.68-12.55Q195.68-9.7 196.86-7.73 198.03-5.75 199.86-4.8 201.68-3.85 203.73-3.85L203.73-3.85ZM261.83-19Q262.48-16.25 262.75-12.08 263.03-7.9 263.03-1.95L263.03-1.95Q263.03-1.15 262.3-0.6 261.58-0.05 260.53-0.05L260.53-0.05Q259.48-0.05 258.78-0.6 258.08-1.15 258.08-2.2L258.08-2.2Q258.08-14.8 257.08-18.35L257.08-18.35Q256.58-20.15 255.58-20.93 254.58-21.7 253.03-21.7L253.03-21.7Q249.58-21.7 247.75-18.93 245.93-16.15 245.93-12.35L245.93-12.35 245.93-1.9Q245.93-1.1 245.23-0.6 244.53-0.1 243.48-0.1L243.48-0.1Q242.38-0.1 241.68-0.63 240.98-1.15 240.98-1.95L240.98-1.95Q240.98-12.05 241.23-21.3L241.23-21.3Q241.43-28.45 242.03-37.1L242.03-37.1Q242.18-39.25 244.48-39.25L244.48-39.25Q245.58-39.25 246.2-38.78 246.83-38.3 246.78-37.4L246.78-37.4 246.28-27.8 245.98-22.3Q247.18-23.85 249.13-24.85 251.08-25.85 253.83-25.85L253.83-25.85Q257.13-25.85 259.03-24.18 260.93-22.5 261.83-19L261.83-19ZM280.97 0.3Q276.72 0.3 273.7-1.45 270.67-3.2 269.15-6.15 267.62-9.1 267.62-12.65L267.62-12.65Q267.62-16.3 269.27-19.28 270.92-22.25 273.92-23.98 276.92-25.7 280.77-25.7L280.77-25.7Q284.17-25.7 286.9-24.33 289.62-22.95 291.17-20.45 292.72-17.95 292.72-14.75L292.72-14.75Q292.72-13.05 292.22-12.33 291.72-11.6 290.17-11.55L290.17-11.55 272.12-11.3Q272.12-9.65 273.17-7.9 274.22-6.15 276.2-4.98 278.17-3.8 280.82-3.8L280.82-3.8Q282.72-3.8 284.05-4.33 285.37-4.85 286.17-5.58 286.97-6.3 288.07-7.5L288.07-7.5Q288.62-8.05 289.47-8.05L289.47-8.05Q290.27-8.05 291-7.43 291.72-6.8 291.72-6L291.72-6Q291.72-5.35 291.27-4.75L291.27-4.75Q289.87-2.75 287.52-1.23 285.17 0.3 280.97 0.3L280.97 0.3ZM272.12-14.8L288.02-15.1Q288.32-15.1 288.45-15.28 288.57-15.45 288.57-15.8L288.57-15.8Q288.57-18.45 286.35-20.13 284.12-21.8 280.77-21.8L280.77-21.8Q278.22-21.8 276.25-20.6 274.27-19.4 273.2-17.73 272.12-16.05 272.12-14.8L272.12-14.8ZM322.32-4Q323.07-3.9 323.5-3.5 323.92-3.1 323.92-2.15L323.92-2.15Q323.92-1.25 323.47-0.65 323.02-0.05 322.22-0.05L322.22-0.05Q320.17-0.05 319.15-0.65 318.12-1.25 317.27-2.9L317.27-2.9Q315.17 0.5 309.47 0.5L309.47 0.5Q303.67 0.5 300.92-3.03 298.17-6.55 298.17-11.8L298.17-11.8Q298.17-15.3 299.57-18.25 300.97-21.2 303.67-22.95 306.37-24.7 309.97-24.7L309.97-24.7Q312.27-24.7 314.05-23.8 315.82-22.9 316.72-21.35L316.72-21.35 316.87-22.6Q317.07-24.4 319.02-24.4L319.02-24.4Q320.32-24.4 320.87-23.83 321.42-23.25 321.32-22.4L321.32-22.4Q320.82-18.65 320.72-16.75L320.72-16.75Q320.57-14.95 320.57-12.05L320.57-12.05 320.57-8.75Q320.57-6.15 320.85-5.15 321.12-4.15 322.32-4L322.32-4ZM315.67-8.75Q315.72-11 315.72-14.9L315.72-14.9Q315.72-16.95 314.85-18.25 313.97-19.55 312.7-20.15 311.42-20.75 310.12-20.75L310.12-20.75Q307.87-20.75 306.3-19.43 304.72-18.1 303.95-16.05 303.17-14 303.17-11.8L303.17-11.8Q303.17-8.45 304.75-5.98 306.32-3.5 309.67-3.5L309.67-3.5Q312.32-3.5 313.97-4.85 315.62-6.2 315.67-8.75L315.67-8.75ZM332.82-0.45Q331.72-0.45 331.07-1.05 330.42-1.65 330.42-2.6L330.42-2.6 330.12-37.4Q330.12-38.4 330.84-39 331.57-39.6 332.67-39.6L332.67-39.6Q333.77-39.6 334.42-39 335.07-38.4 335.07-37.45L335.07-37.45 335.32-2.65Q335.32-1.65 334.62-1.05 333.92-0.45 332.82-0.45L332.82-0.45ZM357.12-8.75Q358.27-8.75 358.77-8.25 359.27-7.75 359.27-6.55L359.27-6.55Q359.27-3.7 357.42-1.83 355.57 0.05 352.72 0.05L352.72 0.05Q348.77 0.05 347.02-3.33 345.27-6.7 345.27-13.9L345.27-13.9Q345.27-16.45 345.42-19L345.42-19 343.02-19.15Q341.07-19.25 341.07-21.2L341.07-21.2Q341.07-22.2 341.59-22.68 342.12-23.15 343.32-23.1L343.32-23.1 345.77-22.95Q346.07-26.1 346.92-31.7L346.92-31.7Q347.22-33.5 349.37-33.5L349.37-33.5Q350.62-33.5 351.29-32.85 351.97-32.2 351.87-31.3L351.87-31.3Q351.17-26.95 350.67-22.7L350.67-22.7Q353.37-22.6 354.22-22.6L354.22-22.6Q355.17-22.6 355.62-22.18 356.07-21.75 356.07-20.85L356.07-20.85Q356.07-19.75 355.59-19.33 355.12-18.9 353.87-18.85L353.87-18.85 350.32-18.85Q350.17-16.45 350.17-13.9L350.17-13.9Q350.17-8.85 350.82-6.43 351.47-4 353.12-4L353.12-4Q355.02-4 355.17-6.95L355.17-6.95Q355.17-7.85 355.59-8.3 356.02-8.75 357.12-8.75L357.12-8.75ZM386.76-19Q387.41-16.25 387.69-12.08 387.96-7.9 387.96-1.95L387.96-1.95Q387.96-1.15 387.24-0.6 386.51-0.05 385.46-0.05L385.46-0.05Q384.41-0.05 383.71-0.6 383.01-1.15 383.01-2.2L383.01-2.2Q383.01-14.8 382.01-18.35L382.01-18.35Q381.51-20.15 380.51-20.93 379.51-21.7 377.96-21.7L377.96-21.7Q374.51-21.7 372.69-18.93 370.86-16.15 370.86-12.35L370.86-12.35 370.86-1.9Q370.86-1.1 370.16-0.6 369.46-0.1 368.41-0.1L368.41-0.1Q367.31-0.1 366.61-0.63 365.91-1.15 365.91-1.95L365.91-1.95Q365.91-12.05 366.16-21.3L366.16-21.3Q366.36-28.45 366.96-37.1L366.96-37.1Q367.11-39.25 369.41-39.25L369.41-39.25Q370.51-39.25 371.14-38.78 371.76-38.3 371.71-37.4L371.71-37.4 371.21-27.8 370.91-22.3Q372.11-23.85 374.06-24.85 376.01-25.85 378.76-25.85L378.76-25.85Q382.06-25.85 383.96-24.18 385.86-22.5 386.76-19L386.76-19ZM405.06 0Q401.16 0 398.31-1.6 395.46-3.2 393.94-5.95 392.41-8.7 392.41-12.15L392.41-12.15Q392.41-15.75 393.99-18.88 395.56-22 398.49-23.85 401.41-25.7 405.31-25.7L405.31-25.7Q409.51-25.7 412.41-23.68 415.31-21.65 416.46-18.7L416.46-18.7Q416.76-18.1 416.76-17.55L416.76-17.55Q416.76-16.4 415.16-15.95L415.16-15.95Q414.56-15.85 414.41-15.85L414.41-15.85Q413.66-15.85 413.16-16.28 412.66-16.7 412.21-17.55L412.21-17.55Q411.41-19.3 409.71-20.53 408.01-21.75 405.61-21.75L405.61-21.75Q403.16-21.75 401.29-20.45 399.41-19.15 398.39-16.95 397.36-14.75 397.36-12.2L397.36-12.2Q397.36-8.55 399.44-6.25 401.51-3.95 405.36-3.95L405.36-3.95Q407.81-3.95 409.51-4.9 411.21-5.85 412.04-7.3 412.86-8.75 412.96-10.25L412.96-10.25Q412.96-10.9 413.49-11.33 414.01-11.75 414.96-11.75L414.96-11.75Q416.16-11.75 416.79-11.28 417.41-10.8 417.41-9.6L417.41-9.6Q417.36-7.3 415.99-5.1 414.61-2.9 411.86-1.45 409.11 0 405.06 0L405.06 0ZM446.26-4Q447.01-3.9 447.43-3.5 447.86-3.1 447.86-2.15L447.86-2.15Q447.86-1.25 447.41-0.65 446.96-0.05 446.16-0.05L446.16-0.05Q444.11-0.05 443.08-0.65 442.06-1.25 441.21-2.9L441.21-2.9Q439.11 0.5 433.41 0.5L433.41 0.5Q427.61 0.5 424.86-3.03 422.11-6.55 422.11-11.8L422.11-11.8Q422.11-15.3 423.51-18.25 424.91-21.2 427.61-22.95 430.31-24.7 433.91-24.7L433.91-24.7Q436.21-24.7 437.98-23.8 439.76-22.9 440.66-21.35L440.66-21.35 440.81-22.6Q441.01-24.4 442.96-24.4L442.96-24.4Q444.26-24.4 444.81-23.83 445.36-23.25 445.26-22.4L445.26-22.4Q444.76-18.65 444.66-16.75L444.66-16.75Q444.51-14.95 444.51-12.05L444.51-12.05 444.51-8.75Q444.51-6.15 444.78-5.15 445.06-4.15 446.26-4L446.26-4ZM439.61-8.75Q439.66-11 439.66-14.9L439.66-14.9Q439.66-16.95 438.78-18.25 437.91-19.55 436.63-20.15 435.36-20.75 434.06-20.75L434.06-20.75Q431.81-20.75 430.23-19.43 428.66-18.1 427.88-16.05 427.11-14 427.11-11.8L427.11-11.8Q427.11-8.45 428.68-5.98 430.26-3.5 433.61-3.5L433.61-3.5Q436.26-3.5 437.91-4.85 439.56-6.2 439.61-8.75L439.61-8.75ZM466.31-25.8Q469.51-25.8 471.41-23.75 473.31-21.7 473.31-18.65L473.31-18.65Q473.31-15.75 471.51-14.1 469.71-12.45 466.86-12.45L466.86-12.45Q465.61-12.45 465.08-12.83 464.56-13.2 464.56-14.15L464.56-14.15Q464.56-15 464.93-15.38 465.31-15.75 466.06-15.8L466.06-15.8Q469.21-16.05 469.21-18.75L469.21-18.75Q469.21-20.05 468.48-20.95 467.76-21.85 466.26-21.85L466.26-21.85Q464.51-21.85 463.13-20.2 461.76-18.55 460.93-16.2 460.11-13.85 459.96-11.75L459.96-11.75Q459.61-8 459.61-3.35L459.61-3.35Q459.61-1.1 459.11-0.35 458.61 0.4 457.21 0.4L457.21 0.4Q455.86 0.4 455.28-0.18 454.71-0.75 454.71-2.1L454.71-2.1Q454.66-3.05 454.66-11.15L454.66-11.15Q454.66-15.2 454.11-20.5L454.11-20.5 453.81-24.35Q453.76-25.3 454.38-25.85 455.01-26.4 456.16-26.4L456.16-26.4Q458.16-26.4 458.26-24.6L458.26-24.6 458.61-19.5Q459.51-22.35 461.51-24.08 463.51-25.8 466.31-25.8L466.31-25.8ZM491.85 0.3Q487.6 0.3 484.58-1.45 481.55-3.2 480.03-6.15 478.5-9.1 478.5-12.65L478.5-12.65Q478.5-16.3 480.15-19.28 481.8-22.25 484.8-23.98 487.8-25.7 491.65-25.7L491.65-25.7Q495.05-25.7 497.78-24.33 500.5-22.95 502.05-20.45 503.6-17.95 503.6-14.75L503.6-14.75Q503.6-13.05 503.1-12.33 502.6-11.6 501.05-11.55L501.05-11.55 483-11.3Q483-9.65 484.05-7.9 485.1-6.15 487.08-4.98 489.05-3.8 491.7-3.8L491.7-3.8Q493.6-3.8 494.93-4.33 496.25-4.85 497.05-5.58 497.85-6.3 498.95-7.5L498.95-7.5Q499.5-8.05 500.35-8.05L500.35-8.05Q501.15-8.05 501.88-7.43 502.6-6.8 502.6-6L502.6-6Q502.6-5.35 502.15-4.75L502.15-4.75Q500.75-2.75 498.4-1.23 496.05 0.3 491.85 0.3L491.85 0.3ZM483-14.8L498.9-15.1Q499.2-15.1 499.33-15.28 499.45-15.45 499.45-15.8L499.45-15.8Q499.45-18.45 497.23-20.13 495-21.8 491.65-21.8L491.65-21.8Q489.1-21.8 487.13-20.6 485.15-19.4 484.08-17.73 483-16.05 483-14.8L483-14.8ZM535.45 0.3Q532 0.3 529.5-1.35 527-3 525.75-5.65L525.75-5.65Q525.4-6.35 525.4-6.75L525.4-6.75Q525.45-7.6 526.35-8.28 527.25-8.95 528.15-8.85L528.15-8.85Q528.65-8.75 528.92-8.47 529.2-8.2 529.7-7.55L529.7-7.55Q531.05-5.7 532.27-4.73 533.5-3.75 535.5-3.75L535.5-3.75Q537.35-3.75 538.6-4.65 539.85-5.55 539.85-6.9L539.85-6.9Q539.85-8.35 538.55-9.13 537.25-9.9 534.45-10.9L534.45-10.9Q531.85-11.75 530.2-12.58 528.55-13.4 527.37-14.88 526.2-16.35 526.2-18.65L526.2-18.65Q526.2-20.75 527.37-22.48 528.55-24.2 530.65-25.18 532.75-26.15 535.4-26.15L535.4-26.15Q538.1-26.15 540.15-25.13 542.2-24.1 543.3-22.4 544.4-20.7 544.4-18.7L544.4-18.7Q544.4-17.55 543.87-17.03 543.35-16.5 542.15-16.5L542.15-16.5Q540.95-16.5 540.55-16.93 540.15-17.35 540.1-18.05L540.1-18.05Q539.9-20 538.72-21.03 537.55-22.05 535.4-22.05L535.4-22.05Q533.15-22.05 532.12-21.03 531.1-20 531.1-18.75L531.1-18.75Q531.1-17.25 532.42-16.45 533.75-15.65 536.65-14.65L536.65-14.65Q539.25-13.75 540.87-12.95 542.5-12.15 543.65-10.73 544.8-9.3 544.8-7.05L544.8-7.05Q544.8-4.65 543.47-3 542.15-1.35 540-0.53 537.85 0.3 535.45 0.3L535.45 0.3ZM562.75 0.1Q556.85 0.1 553.12-3.03 549.4-6.15 549.4-12.4L549.4-12.4Q549.4-16.35 550.97-19.4 552.55-22.45 555.47-24.15 558.4-25.85 562.4-25.85L562.4-25.85Q566.3-25.85 569.37-24.2 572.45-22.55 574.17-19.48 575.9-16.4 575.9-12.3L575.9-12.3Q575.9-6.3 572.3-3.1 568.7 0.1 562.75 0.1L562.75 0.1ZM562.65-3.85Q566.35-3.85 568.65-6.03 570.95-8.2 570.95-12.4L570.95-12.4Q570.95-15.1 569.92-17.28 568.9-19.45 566.97-20.68 565.05-21.9 562.55-21.9L562.55-21.9Q558.85-21.9 556.62-19.33 554.4-16.75 554.4-12.45L554.4-12.45Q554.4-8.05 556.75-5.95 559.1-3.85 562.65-3.85L562.65-3.85ZM583.84-0.45Q582.74-0.45 582.09-1.05 581.44-1.65 581.44-2.6L581.44-2.6 581.14-37.4Q581.14-38.4 581.87-39 582.59-39.6 583.69-39.6L583.69-39.6Q584.79-39.6 585.44-39 586.09-38.4 586.09-37.45L586.09-37.45 586.34-2.65Q586.34-1.65 585.64-1.05 584.94-0.45 583.84-0.45L583.84-0.45ZM613.89-6.3Q613.89-5.1 614.14-4.33 614.39-3.55 614.74-2.95 615.09-2.35 615.09-2.2L615.09-2.2Q615.09-1.4 614.41-0.8 613.74-0.2 612.89-0.2L612.89-0.2Q611.89-0.2 610.94-1.48 609.99-2.75 609.99-4L609.99-4 609.99-4.3Q608.99-2.2 607.04-1.07 605.09 0.05 602.34 0.05L602.34 0.05Q598.09 0.05 595.86-2.93 593.64-5.9 593.64-11.2L593.64-11.2 593.64-23.35Q593.64-24.2 594.31-24.7 594.99-25.2 596.04-25.2L596.04-25.2Q597.14-25.2 597.86-24.7 598.59-24.2 598.59-23.35L598.59-23.35 598.59-11.15Q598.59-3.9 602.94-3.9L602.94-3.9Q605.99-3.9 607.36-6.68 608.74-9.45 608.74-14.7L608.74-14.7 608.74-23.35Q608.74-24.35 609.39-24.93 610.04-25.5 611.14-25.5L611.14-25.5Q612.29-25.5 612.99-24.9 613.69-24.3 613.69-23.35L613.69-23.35 613.89-6.3ZM635.94-8.75Q637.09-8.75 637.59-8.25 638.09-7.75 638.09-6.55L638.09-6.55Q638.09-3.7 636.24-1.83 634.39 0.05 631.54 0.05L631.54 0.05Q627.59 0.05 625.84-3.33 624.09-6.7 624.09-13.9L624.09-13.9Q624.09-16.45 624.24-19L624.24-19 621.84-19.15Q619.89-19.25 619.89-21.2L619.89-21.2Q619.89-22.2 620.41-22.68 620.94-23.15 622.14-23.1L622.14-23.1 624.59-22.95Q624.89-26.1 625.74-31.7L625.74-31.7Q626.04-33.5 628.19-33.5L628.19-33.5Q629.44-33.5 630.11-32.85 630.79-32.2 630.69-31.3L630.69-31.3Q629.99-26.95 629.49-22.7L629.49-22.7Q632.19-22.6 633.04-22.6L633.04-22.6Q633.99-22.6 634.44-22.18 634.89-21.75 634.89-20.85L634.89-20.85Q634.89-19.75 634.41-19.33 633.94-18.9 632.69-18.85L632.69-18.85 629.14-18.85Q628.99-16.45 628.99-13.9L628.99-13.9Q628.99-8.85 629.64-6.43 630.29-4 631.94-4L631.94-4Q633.84-4 633.99-6.95L633.99-6.95Q633.99-7.85 634.41-8.3 634.84-8.75 635.94-8.75L635.94-8.75ZM648.68-27.55Q647.13-27.55 646.13-28.58 645.13-29.6 645.13-31.15L645.13-31.15Q645.13-32.65 646.16-33.65 647.18-34.65 648.78-34.65L648.78-34.65Q650.38-34.65 651.36-33.7 652.33-32.75 652.33-31.2L652.33-31.2Q652.33-29.65 651.31-28.6 650.28-27.55 648.68-27.55L648.68-27.55ZM647.98-0.3Q646.83-0.3 646.13-0.85 645.43-1.4 645.43-2.4L645.43-2.4 645.93-22.7Q645.93-23.7 646.63-24.28 647.33-24.85 648.43-24.85L648.43-24.85Q649.53-24.85 650.26-24.25 650.98-23.65 650.98-22.65L650.98-22.65 650.48-2.35Q650.43-1.35 649.76-0.83 649.08-0.3 647.98-0.3L647.98-0.3ZM671.18 0.1Q665.28 0.1 661.56-3.03 657.83-6.15 657.83-12.4L657.83-12.4Q657.83-16.35 659.41-19.4 660.98-22.45 663.91-24.15 666.83-25.85 670.83-25.85L670.83-25.85Q674.73-25.85 677.81-24.2 680.88-22.55 682.61-19.48 684.33-16.4 684.33-12.3L684.33-12.3Q684.33-6.3 680.73-3.1 677.13 0.1 671.18 0.1L671.18 0.1ZM671.08-3.85Q674.78-3.85 677.08-6.03 679.38-8.2 679.38-12.4L679.38-12.4Q679.38-15.1 678.36-17.28 677.33-19.45 675.41-20.68 673.48-21.9 670.98-21.9L670.98-21.9Q667.28-21.9 665.06-19.33 662.83-16.75 662.83-12.45L662.83-12.45Q662.83-8.05 665.18-5.95 667.53-3.85 671.08-3.85L671.08-3.85ZM702.28-25.5Q706.53-25.5 708.75-22.48 710.98-19.45 710.98-13.45L710.98-13.45 710.98-1.9Q710.98-0.95 710.33-0.48 709.68 0 708.58 0L708.58 0Q707.48 0 706.73-0.45 705.98-0.9 705.98-1.8L705.98-1.8 706.03-13.5Q706.03-17.65 705.1-19.53 704.18-21.4 701.83-21.4L701.83-21.4Q697.33-21.4 695.98-14.2L695.98-14.2Q695.53-12 695.53-8.9L695.53-8.9 695.58-1.8Q695.58-0.9 694.93-0.43 694.28 0.05 693.18 0.05L693.18 0.05Q691.98 0.05 691.3-0.48 690.63-1 690.63-1.8L690.63-1.8Q690.63-6.8 690.43-13.4L690.43-13.4Q690.33-17.3 690.33-18.8L690.33-18.8Q690.28-19.9 690-20.53 689.73-21.15 688.98-22.4L688.98-22.4Q688.78-22.9 688.78-23.25L688.78-23.25Q688.78-24 689.63-24.65 690.48-25.3 691.28-25.3L691.28-25.3Q692.13-25.3 692.93-24.2L692.93-24.2Q694.28-22.25 694.28-20.65L694.28-20.65 694.28-20.05Q695.18-22.4 697.1-23.95 699.03-25.5 702.28-25.5L702.28-25.5ZM726.43 0.3Q722.98 0.3 720.48-1.35 717.98-3 716.73-5.65L716.73-5.65Q716.38-6.35 716.38-6.75L716.38-6.75Q716.43-7.6 717.33-8.28 718.23-8.95 719.13-8.85L719.13-8.85Q719.63-8.75 719.9-8.47 720.18-8.2 720.68-7.55L720.68-7.55Q722.03-5.7 723.25-4.73 724.48-3.75 726.48-3.75L726.48-3.75Q728.33-3.75 729.58-4.65 730.83-5.55 730.83-6.9L730.83-6.9Q730.83-8.35 729.53-9.13 728.23-9.9 725.43-10.9L725.43-10.9Q722.83-11.75 721.18-12.58 719.53-13.4 718.35-14.88 717.18-16.35 717.18-18.65L717.18-18.65Q717.18-20.75 718.35-22.48 719.53-24.2 721.63-25.18 723.73-26.15 726.38-26.15L726.38-26.15Q729.08-26.15 731.13-25.13 733.18-24.1 734.28-22.4 735.38-20.7 735.38-18.7L735.38-18.7Q735.38-17.55 734.85-17.03 734.33-16.5 733.13-16.5L733.13-16.5Q731.93-16.5 731.53-16.93 731.13-17.35 731.08-18.05L731.08-18.05Q730.88-20 729.7-21.03 728.53-22.05 726.38-22.05L726.38-22.05Q724.13-22.05 723.1-21.03 722.08-20 722.08-18.75L722.08-18.75Q722.08-17.25 723.4-16.45 724.73-15.65 727.63-14.65L727.63-14.65Q730.23-13.75 731.85-12.95 733.48-12.15 734.63-10.73 735.78-9.3 735.78-7.05L735.78-7.05Q735.78-4.65 734.45-3 733.13-1.35 730.98-0.53 728.83 0.3 726.43 0.3L726.43 0.3Z" opacity="1" transform="matrix(1,0,0,1,0,0)" fill="#ffffff" class="slogan-text-1" data-fill-palette-color="secondary" id="text-1"></path></svg></g></svg></g></svg></g></svg></g><g><svg viewBox="0 0 230.74067407335218 185.18464194387275" height="185.18464194387275" width="230.74067407335218"><g><svg xmlns="http://www.w3.org/2000/svg" xmlns:xlink="http://www.w3.org/1999/xlink" version="1.1" x="8" y="0" viewBox="1.4849999999999999 8.2 97.05877458988861 83.7" enable-background="new 0 0 100 100" xml:space="preserve" height="185.18464194387275" width="214.74067407335218" class="icon-icon-0" data-fill-palette-color="accent" id="icon-0"><path d="M61.6 8.2c-4.1 0-7.9 1.6-10.7 4.5L50 13.5l-0.8-0.8c-2.9-2.9-6.7-4.5-10.8-4.5-4 0-7.9 1.6-10.7 4.4-2.9 2.9-4.4 6.7-4.4 10.7 0 4.1 1.6 7.9 4.5 10.7l20.7 20.7c0.4 0.4 1 0.7 1.6 0.7 0.6 0 1.2-0.2 1.6-0.7l20.6-20.6c2.9-2.9 4.5-6.7 4.5-10.7 0-4.1-1.6-7.9-4.4-10.7C69.4 9.8 65.6 8.2 61.6 8.2zM38.3 18.4c-2.7 0-4.9 2.2-4.9 4.9 0 1.2-1 2.2-2.2 2.2-1.2 0-2.2-1-2.2-2.2 0-5.2 4.2-9.4 9.4-9.4 1.2 0 2.2 1 2.2 2.2C40.5 17.4 39.5 18.4 38.3 18.4zM4 56.2L1.5 31.8c-0.1-1.2 0.3-2.4 1.2-3.2 1.1-0.9 2.9-1.2 4.2 0.3 0.9 1.1 1.4 4.4 1.5 5.3 0.5 3.2 1.1 7.8 1.2 11 0 0.2 0 0.5 0 0.7 0.1 1.4 0.4 2.7 1 4 3.3 7.1 9.8 16 9.8 16l0.4 0.5c0.3 0.4 0.8 0.5 1.2 0.3 0.5-0.3 0.6-0.9 0.4-1.3l-8.6-14.1c-0.9-1.6-0.4-3.8 1.3-4.8 1.7-1 3.9-0.5 4.8 1.1l9 11.6c0.6 0.8 1.7 1.8 2.5 2.4 8.1 5.8 9.2 11.7 9.9 14.8 0 0 0.1 0.7 0.1 1.7h0l0 0c0 0.8 0 1.8-0.2 2.8l-0.5 9.7c0 0.7-0.6 1.3-1.3 1.3l-15.2-0.1c-0.7 0-1.3-0.6-1.3-1.3l-0.3-8L8.2 65c-2.1-2.3-3.6-4.8-4-7.9L4 56.2zM12.9 33.1c0.7 2.5 1.5 7.2 1.9 9.8 0 0 0 0.1-0.1 0.1-0.5 0.2-0.9 0.4-1.4 0.6-0.4 0.2-0.7 0.5-1 0.7 0-0.3 0-0.5 0-0.8-0.1-2.6-0.7-7.6-1.2-10.4-0.1-0.8-0.3-1.7-0.6-2.6C11.9 31 12.6 31.9 12.9 33.1zM17.7 36.6c0.4 1.5 1.5 4.8 1.7 6.4-0.7-0.3-1.4-0.4-2.2-0.4 0-0.1 0-0.2 0-0.3L17.1 41c-0.2-1.8-1.3-5.1-1.7-7C16.7 34.5 17.4 35.4 17.7 36.6zM84.9 46.5c1.7 1 2.2 3.3 1.3 4.8l-8.6 14.1c-0.3 0.5-0.1 1.1 0.4 1.3 0.4 0.2 1 0.1 1.2-0.3l0.4-0.5c0 0 6.5-8.9 9.8-16 0.6-1.3 0.9-2.6 1-4 0-0.2 0-0.5 0-0.7 0.1-3.2 0.6-7.8 1.2-11 0.2-0.9 0.6-4.2 1.5-5.3 1.3-1.5 3.1-1.2 4.2-0.3 0.9 0.8 1.4 2 1.2 3.2L96 56.2l-0.1 0.9c-0.5 3.1-1.9 5.6-4 7.9L77.4 82.4l-0.3 8c0 0.7-0.6 1.3-1.3 1.3l-15.2 0.1c-0.7 0-1.3-0.6-1.3-1.3l-0.5-9.7c-0.1-1-0.2-2-0.2-2.8v0c0-1 0.1-1.7 0.1-1.7 0.7-3 1.8-8.9 9.9-14.8 0.8-0.6 1.9-1.7 2.5-2.4l9-11.6C80.9 46 83.2 45.4 84.9 46.5zM86.6 43.6c-0.4-0.3-0.9-0.5-1.4-0.6 0 0 0-0.1-0.1-0.1 0.3-2.5 1.2-7.3 1.9-9.8 0.3-1.2 1.1-2.1 2.3-2.6-0.3 0.9-0.4 1.7-0.6 2.6-0.5 2.8-1.1 7.7-1.2 10.4 0 0.3 0 0.5 0 0.8C87.3 44.1 87 43.8 86.6 43.6zM82.7 42.2c0 0.1 0 0.2 0 0.3-0.7 0-1.5 0.2-2.2 0.4 0.2-1.6 1.3-4.9 1.7-6.4 0.3-1.2 1-2.1 2.3-2.5-0.4 1.8-1.4 5.2-1.7 7L82.7 42.2z" fill="#ffffff" data-fill-palette-color="accent"></path></svg></g></svg></g></svg></g><defs></defs></svg><rect width="395.5199999999999" height="113.10699257225914" fill="none" stroke="none" visibility="hidden"></rect></g></svg></g></svg>